<?xml version="1.0" encoding="iso-8859-1"?>
<!-- Generator: Adobe Illustrator 13.0.2, SVG Export Plug-In . SVG Version: 6.00 Build 14948)  -->
<!DOCTYPE svg PUBLIC "-//W3C//DTD SVG 1.1//EN" "http://www.w3.org/Graphics/SVG/1.1/DTD/svg11.dtd">
<svg version="1.1" id="tomatillo_xA0_Image_1_" xmlns="http://www.w3.org/2000/svg" xmlns:xlink="http://www.w3.org/1999/xlink"
	 x="0px" y="0px" width="190.94px" height="276.796px" viewBox="0 0 190.94 276.796"
	 style="enable-background:new 0 0 190.94 276.796;" xml:space="preserve">
<path style="fill-rule:evenodd;clip-rule:evenodd;fill:#B9C55B;" d="M105.163,275.508c0,0-3.167-13.023-3.167-14.079
	s3.167-3.871,3.167-3.871s8.447,7.743,10.207,7.743s-6.335-8.447-6.335-8.447l-2.398-10.632c0,0,12.958-15.062,16.829-15.766
	s26.748-17.246,29.564-17.95s26.397-22.877,30.621-31.324s9.854-33.788,4.575-52.091c-5.279-18.302-12.67-41.884-12.67-41.884
	s-7.393-15.134-10.56-17.598s1.76-9.855-3.52-10.911s-16.895-3.52-16.895-3.52l-4.224-1.056c0,0-3.168-4.224-5.279-5.28
	s-7.039-1.408-8.095-1.408s-0.704-2.816-0.704-2.816s-3.871-0.703-5.279-0.352s-3.872-0.704-3.872-0.704s-8.798-1.76-11.614-0.352
	s-7.057-0.178-7.057-0.178s0.369-16.012-2.447-23.051C93.197,12.943,81.23-0.08,71.375,0.272S47.441,6.608,47.441,6.608l2.464,4.223
	c0,0,16.542-6.688,20.766-5.631S90.247,9.262,91.99,24.83s-0.249,24.536-0.249,24.536l-3.977,0.588l-4.368,2.276l-3.181-0.389
	c0,0-3.295,0.39-4.043,0.639s-1.993,0.747-1.993,0.747s-3.363-0.623-3.737-0.623s-6.601,0.872-6.601,0.872s-9.092-5.978-12.455-5.48
	s-9.715,2.366-10.337,5.231s-2.989,6.975-2.989,6.975S25.98,60.7,21.621,65.059S11.016,82.087,11.016,82.087s-7.5,17.5-8.25,36
	s0,29.25,1,33.25s17,36,17,36s21.75,19.75,26.75,22.75s37.5,22,37.5,22l6.5,8c0,0,2.25,8,2.5,13.5s-4.5,12-4.5,12l0.25,2.5l6-4.5
	L105.163,275.508z"/>
<g>
	<path style="fill-rule:evenodd;clip-rule:evenodd;fill:#608A46;" d="M97.709,42.784c1.612,1.774,2.55-2.447,5.032-1.887
		c3.302,0.054,5.62,1.09,8.178,1.887c-4.17,0.599-9.688-0.773-13.21,2.516c-0.73,9.298-1.649,17.444-2.517,25.163
		c-3.476,1.955-5.592,3.891-8.807,3.145c-2.107-4.042-6.753-8.671-6.92-12.581c3.433,2.229,3.963,7.36,6.291,10.694
		c1.719-1.557-0.664-4.333-1.258-5.662c1.942-2.104,1.546,3.45,3.146,3.774c1.604-16.517,7.578-35.624,1.258-50.954
		c-2.885-1.843-3.708-6.041-6.291-8.178c-6.578-5.444-18.59-5.787-27.05-2.516c-7.896,3.053-14.199,10.541-20.13,13.839
		c-0.845,1.461,0.087,4.7-2.516,4.404c-0.09-4.144,1.654-6.965-1.887-8.178c0.402-1.942,2.498-1.623,3.774-2.516
		c2.961-2.072,6.123-6.212,10.694-7.549c3.816-5.66,12.174-6.264,19.501-7.549c4.036-0.708,4.95-0.978,8.807,0
		c2.904,0.736,7.241,0.847,9.436,1.887c2.771,1.313,4.337,4.938,7.549,4.403C97.762,15.416,100.375,29.386,97.709,42.784z
		 M91.418,13.218C87.39,7.655,79.971,1.988,70.03,1.265c-7.958-0.578-18.522,2.528-21.388,6.92c1.936-0.421,2.784-1.906,4.403-2.516
		c3.724-1.403,7.949-0.654,11.323-1.258c1.512-0.271,2.195-1.309,3.774-1.258c9.6,0.309,21.092,7.58,23.905,17.614
		c1.174,4.188-0.023,8.694,1.887,13.21C96.679,26.228,90.434,19.235,91.418,13.218z M90.16,72.35
		c3.395-3.896,0.679-10.806,1.258-16.356c0.805,0.035,0.872,0.806,1.888,0.629c-0.23-7.759,2.4-14.705,0-20.13
		C92.847,48.295,88.282,59.015,90.16,72.35z"/>
	<path style="fill-rule:evenodd;clip-rule:evenodd;fill:#608A46;" d="M106.516,43.413c2.256-0.159,2.305,1.889,4.403,1.887
		C109.881,46.701,106.848,44.801,106.516,43.413z"/>
	<path style="fill-rule:evenodd;clip-rule:evenodd;fill:#608A46;" d="M105.887,46.558c1.049,0,2.097,0,3.146,0
		c0.059,1.946-1.899,1.875-3.774,1.887C105.591,47.939,105.914,47.424,105.887,46.558z"/>
	<path style="fill-rule:evenodd;clip-rule:evenodd;fill:#608A46;" d="M87.015,49.704c0.112,2.208-2.125,2.069-2.516,3.774
		c2.118,2.226,0.652,5.557,1.258,10.065c-1.662-2.532-1.797-6.591-3.146-9.436c-0.456-1.431-3.587-0.188-3.146-2.516
		C83.828,52.808,83.659,49.493,87.015,49.704z"/>
	<path style="fill-rule:evenodd;clip-rule:evenodd;fill:#608A46;" d="M64.998,55.994c-1.96,2.615-6.473-2.619-10.694-1.887
		c0.361-1.526,4.07,0.295,3.774-1.887C60.779,53.083,62.219,55.208,64.998,55.994z"/>
	<path style="fill-rule:evenodd;clip-rule:evenodd;fill:#608A46;" d="M38.577,56.623c1.83,0.547,0.708,0.942,0.629,2.517
		c-0.629,0-1.258,0-1.887,0C36.86,57.423,38.568,57.873,38.577,56.623z"/>
	<path style="fill-rule:evenodd;clip-rule:evenodd;fill:#608A46;" d="M101.483,60.397c1.128-0.08,1.327,0.77,2.517,0.629
		c-1.408,1.737-2.351,3.94-5.033,4.403C98.592,62.539,101.8,63.231,101.483,60.397z"/>
	<path style="fill-rule:evenodd;clip-rule:evenodd;fill:#608A46;" d="M53.045,68.576c2.1-0.613,6.615,1.758,7.549,4.403
		C57.794,71.794,55.375,70.229,53.045,68.576z"/>
	<path style="fill-rule:evenodd;clip-rule:evenodd;fill:#608A46;" d="M100.226,78.012c0.629,0,1.258,0,1.887,0
		c0.201,3.347-2.044,4.247-1.887,7.549C95.73,84.496,101.275,81.423,100.226,78.012z"/>
	<path style="fill-rule:evenodd;clip-rule:evenodd;fill:#608A46;" d="M129.162,80.528c1.242,0.435,1.677,1.678,1.888,3.146
		C128.662,84.221,128.096,81.584,129.162,80.528z"/>
	<path style="fill-rule:evenodd;clip-rule:evenodd;fill:#608A46;" d="M31.028,96.883c-0.731,0.103-1.119-0.139-1.258-0.629
		c0.955-7.223,2.764-13.591,9.436-15.098C33.044,84.207,34.573,91.139,31.028,96.883z"/>
	<path style="fill-rule:evenodd;clip-rule:evenodd;fill:#608A46;" d="M47.383,84.302c-2.814,4.191-6.836,4.527-8.807,8.178
		c-0.295,0.548,1.243,1.11,1.258,1.258c0.203,2.036-2.632,3.026-3.145,4.403C34.433,93.655,40.483,85.439,47.383,84.302z"/>
	<path style="fill-rule:evenodd;clip-rule:evenodd;fill:#608A46;" d="M97.709,86.818c1.005,0.882,1.607,2.167,1.887,3.774
		C97.65,90.651,97.722,88.693,97.709,86.818z"/>
	<path style="fill-rule:evenodd;clip-rule:evenodd;fill:#608A46;" d="M98.967,92.48c-1.764,1.891-4.631-2.952-3.145-4.403
		C97.593,88.821,97.756,91.175,98.967,92.48z"/>
	<path style="fill-rule:evenodd;clip-rule:evenodd;fill:#608A46;" d="M78.208,111.352c-2.249-1.924-2.596-5.507-3.774-8.178
		c-1.218-2.759-2.782-4.972-3.774-7.549C75.129,98.914,76.626,105.175,78.208,111.352z"/>
	<path style="fill-rule:evenodd;clip-rule:evenodd;fill:#608A46;" d="M148.034,98.771c2.39,0.336,2.771,2.68,3.146,5.032
		C149.286,102.971,148.886,100.646,148.034,98.771z"/>
	<path style="fill-rule:evenodd;clip-rule:evenodd;fill:#608A46;" d="M64.368,100.029c2.832,0.943,3.441,4.107,4.404,6.92
		C66.726,105.22,65.509,102.663,64.368,100.029z"/>
	<path style="fill-rule:evenodd;clip-rule:evenodd;fill:#608A46;" d="M111.549,105.69c-0.458,1.85-1.962,2.652-4.404,2.516
		C108.066,106.822,108.812,105.26,111.549,105.69z"/>
	<path style="fill-rule:evenodd;clip-rule:evenodd;fill:#608A46;" d="M70.03,110.723c2.449,1.745,2.583,5.805,3.774,8.807
		C71.167,117.973,70.756,114.19,70.03,110.723z"/>
	<path style="fill-rule:evenodd;clip-rule:evenodd;fill:#608A46;" d="M62.481,114.498c2.052,4.029,1.727,10.435,6.291,11.952
		c1.164-0.095,0.386-2.13,1.258-2.516c0.471,2.759,5.121-1.467,5.033,2.516c-1.235,0.176-3.144,1.123-3.774-0.629
		c-0.819,1.021-2.691,2.351-3.774,1.258c-0.158,2.712,2.683,1.975,1.258,4.404c-2.02,0.551-1.304-1.631-2.517-1.887
		C67.452,124.745,61.055,119.536,62.481,114.498z"/>
	<path style="fill-rule:evenodd;clip-rule:evenodd;fill:#608A46;" d="M165.02,127.079c0.455-1.406,3.587-0.304,3.145,1.258
		C166.703,129.856,166.48,127.354,165.02,127.079z"/>
	<path style="fill-rule:evenodd;clip-rule:evenodd;fill:#608A46;" d="M32.286,128.966c0.731-0.102,1.119,0.139,1.258,0.629
		c0.1,4.712-2.282,6.944-3.774,10.064c-0.73,5.35,4.999,12.862,0,16.356c-1.182-4.689-0.516-11.227-2.516-15.098
		c-2.281,2.673-4.61,2.875-7.549,1.258c0.164-3.82,5.156-2.812,8.178-3.774C30.722,136.628,30.868,132.162,32.286,128.966z"/>
	<path style="fill-rule:evenodd;clip-rule:evenodd;fill:#608A46;" d="M166.906,129.595c2.469,2.563,1.854,8.21,2.517,12.581
		C167.248,139.318,167.179,134.356,166.906,129.595z"/>
	<path style="fill-rule:evenodd;clip-rule:evenodd;fill:#608A46;" d="M49.9,132.74c1.505,0.943-0.997,3.148-2.517,3.146
		C47.118,133.733,49.268,133.996,49.9,132.74z"/>
	<path style="fill-rule:evenodd;clip-rule:evenodd;fill:#608A46;" d="M59.336,133.999c1.355-1.517,2.534,2.462,3.145,3.774
		C60.117,137.831,61.02,134.621,59.336,133.999z"/>
	<path style="fill-rule:evenodd;clip-rule:evenodd;fill:#608A46;" d="M63.11,133.999c4.373,3.303,3.604,7.887,5.032,13.84
		c-1.608-3.425-4.547-5.518-5.662-9.437c1.156,0.941,1.569,2.626,3.146,3.146C65.505,138.314,63.352,137.112,63.11,133.999z"/>
	<path style="fill-rule:evenodd;clip-rule:evenodd;fill:#608A46;" d="M44.238,137.773c3.413,0.84-1.006,3.196-1.258,4.403
		c-1.747,0.979-1.511,3.94-4.403,3.774C39.949,142.709,42.278,140.426,44.238,137.773z"/>
	<path style="fill-rule:evenodd;clip-rule:evenodd;fill:#608A46;" d="M169.423,142.805c1.884,0.633,1.241,3.791,1.887,5.662
		C169.869,147.392,169.822,144.922,169.423,142.805z"/>
	<path style="fill-rule:evenodd;clip-rule:evenodd;fill:#608A46;" d="M97.709,144.693c1.528,0.987,2.356,2.676,2.517,5.032
		C98.069,148.913,95.521,146.267,97.709,144.693z"/>
	<path style="fill-rule:evenodd;clip-rule:evenodd;fill:#608A46;" d="M42.351,148.467c0.629,0,1.258,0,1.887,0
		c0.666,2.344-1.325,2.03-1.887,3.146C40.507,151.08,42.727,149.587,42.351,148.467z"/>
	<path style="fill-rule:evenodd;clip-rule:evenodd;fill:#608A46;" d="M139.228,154.757c1.927,1.365-0.604,3.541,0,5.662
		C137.826,158.682,139.289,155.888,139.228,154.757z"/>
	<path style="fill-rule:evenodd;clip-rule:evenodd;fill:#608A46;" d="M44.238,158.532c1.482-0.014,1.852,1.084,3.774,0.63
		C48.806,163.125,43.445,161.622,44.238,158.532z"/>
	<path style="fill-rule:evenodd;clip-rule:evenodd;fill:#608A46;" d="M72.546,158.532c1.048,0,2.097,0,3.145,0
		C76.185,161.186,72.317,160.68,72.546,158.532z"/>
	<path style="fill-rule:evenodd;clip-rule:evenodd;fill:#608A46;" d="M87.015,158.532c0.935,0.743,2.811,0.545,2.517,2.517
		C88.074,162.73,85.036,160.288,87.015,158.532z"/>
	<path style="fill-rule:evenodd;clip-rule:evenodd;fill:#608A46;" d="M42.351,159.162c-1.759,2.736-1.61,3.225-0.629,6.919
		c-2.116,0.02-1.281-2.912-2.516-3.774c-1.94,2.188,0.567,5.277,1.258,6.92c-2.742,2.944,2.553,8.167,1.258,11.323
		c-2.125-0.61-2.056-4.03-3.145-6.92c-1.217-3.229-5.389-9.227-1.258-9.436c-0.054-1.623-2.693-0.662-1.887-3.146
		C37.801,160.482,40.052,159.798,42.351,159.162z"/>
	<path style="fill-rule:evenodd;clip-rule:evenodd;fill:#608A46;" d="M92.676,160.419c1.979-0.302,2.459,0.896,3.774,1.258
		C96.181,163.816,91.854,163.087,92.676,160.419z"/>
	<path style="fill-rule:evenodd;clip-rule:evenodd;fill:#608A46;" d="M153.066,162.306c0.612,0.018,0.488,0.771,0.63,1.259
		c-0.542,7.691-3.456,13.887-5.662,20.13c-1.559,4.413-2.511,8.905-5.661,11.952C146.441,185.038,150.375,174.292,153.066,162.306z"
		/>
	<path style="fill-rule:evenodd;clip-rule:evenodd;fill:#608A46;" d="M90.789,166.081c2.612,1.407,1.494,5.208,1.887,8.179
		c0.43,3.247,1.229,6.543,1.258,9.436c-2.206-0.73-1.596-4.275-1.887-6.92c-0.222-0.881-1.107-0.054-1.258,0.629
		c-1.53-0.395-0.333-3.178,1.258-2.516C91.248,172.541,89.867,168.132,90.789,166.081z"/>
	<path style="fill-rule:evenodd;clip-rule:evenodd;fill:#608A46;" d="M82.611,166.71c1.769-0.092,1.814,1.54,1.887,3.145
		C82.729,169.947,82.684,168.315,82.611,166.71z"/>
	<path style="fill-rule:evenodd;clip-rule:evenodd;fill:#608A46;" d="M126.017,166.71c1.526,2.039,1.561,5.569,1.888,8.807
		C126.379,173.478,126.344,169.948,126.017,166.71z"/>
	<path style="fill-rule:evenodd;clip-rule:evenodd;fill:#608A46;" d="M79.466,167.968c1.783-1.944,3.184,1.813,3.146,3.774
		C80.711,171.336,80.855,168.885,79.466,167.968z"/>
	<path style="fill-rule:evenodd;clip-rule:evenodd;fill:#608A46;" d="M94.563,169.226c2.265,1.091,1.567,5.144,1.887,8.178
		C93.475,177.234,94.598,170.321,94.563,169.226z"/>
	<path style="fill-rule:evenodd;clip-rule:evenodd;fill:#608A46;" d="M79.466,173.629c2.38,0.779,0.942,7.863-0.629,8.808
		C78.842,177.897,79.476,177.816,79.466,173.629z"/>
	<path style="fill-rule:evenodd;clip-rule:evenodd;fill:#608A46;" d="M32.915,174.888c2.396,1.587,2.099,5.869,3.145,8.807
		C34.044,181.727,33.373,178.415,32.915,174.888z"/>
	<path style="fill-rule:evenodd;clip-rule:evenodd;fill:#608A46;" d="M48.013,176.775c2.846-0.019,0.199,2.913,0,3.774
		C46.102,179.774,48.695,178.386,48.013,176.775z"/>
	<path style="fill-rule:evenodd;clip-rule:evenodd;fill:#608A46;" d="M118.468,177.404c1.78,1.575,1.562,5.148,2.517,7.549
		C118.282,184.3,119.444,179.784,118.468,177.404z"/>
	<path style="fill-rule:evenodd;clip-rule:evenodd;fill:#608A46;" d="M86.386,178.034c0.731-0.103,1.119,0.139,1.258,0.629
		c-1.476,5.367-0.104,9.743-1.258,15.098C85.183,188.423,85.369,182.814,86.386,178.034z"/>
	<path style="fill-rule:evenodd;clip-rule:evenodd;fill:#608A46;" d="M46.125,181.178c2.462,0.595-0.126,3.062-1.887,3.146
		C43.941,182.349,45.931,182.662,46.125,181.178z"/>
	<path style="fill-rule:evenodd;clip-rule:evenodd;fill:#608A46;" d="M89.531,183.066c1.336-0.266,0.305,7.227,0.629,10.065
		C86.889,191.46,90.418,186.467,89.531,183.066z"/>
	<path style="fill-rule:evenodd;clip-rule:evenodd;fill:#608A46;" d="M93.306,191.873c2.636,1.405-1.362,6.434-1.258,9.437
		C90.292,198.482,92.544,194.274,93.306,191.873z"/>
	<path style="fill-rule:evenodd;clip-rule:evenodd;fill:#608A46;" d="M133.565,193.76c1.623,1.176,0.455,7.715-1.887,8.807
		C132.196,199.52,132.971,196.73,133.565,193.76z"/>
	<path style="fill-rule:evenodd;clip-rule:evenodd;fill:#608A46;" d="M46.125,197.535c3.012-0.387,3.117,1.774,5.032,3.774
		C49.31,202.706,47.221,198.979,46.125,197.535z"/>
	<path style="fill-rule:evenodd;clip-rule:evenodd;fill:#608A46;" d="M135.453,199.421c1.403,0.645,0.497,4.212-1.258,3.774
		C133.894,201.217,135.091,200.737,135.453,199.421z"/>
	<path style="fill-rule:evenodd;clip-rule:evenodd;fill:#608A46;" d="M114.064,201.309c2.098,1.08,1.189,4.967,0,6.29
		C112.547,206.444,114.928,203.891,114.064,201.309z"/>
	<path style="fill-rule:evenodd;clip-rule:evenodd;fill:#608A46;" d="M106.516,201.938c1.361,1.155,1.324,3.708,1.259,6.29
		C106.689,206.797,106.429,204.542,106.516,201.938z"/>
	<path style="fill-rule:evenodd;clip-rule:evenodd;fill:#608A46;" d="M92.676,203.196c1.016-0.177,1.083,0.595,1.887,0.629
		c0.318,6.603,3.661,10.179,4.403,16.356C95.613,215.777,94.443,209.188,92.676,203.196z"/>
	<path style="fill-rule:evenodd;clip-rule:evenodd;fill:#608A46;" d="M95.822,203.825c2.378,1.815,3.138,5.25,3.145,9.437
		C97.168,210.867,95.907,207.934,95.822,203.825z"/>
	<path style="fill-rule:evenodd;clip-rule:evenodd;fill:#608A46;" d="M129.791,208.858c3.223,2.567-2.841,6.25-5.032,7.549
		c0.528-0.73,0.83-1.687,0.629-3.146C127.654,214.748,129.764,211.607,129.791,208.858z"/>
	<path style="fill-rule:evenodd;clip-rule:evenodd;fill:#608A46;" d="M114.693,232.133c1.767,1.008-1.363,2.351-1.258,3.774
		C111.367,234.597,114.497,233.254,114.693,232.133z"/>
	<path style="fill-rule:evenodd;clip-rule:evenodd;fill:#608A46;" d="M94.563,232.762c1.72,1.809,4.022,5.805,3.146,8.178
		C95.895,238.98,95.73,235.371,94.563,232.762z"/>
	<path style="fill-rule:evenodd;clip-rule:evenodd;fill:#608A46;" d="M92.676,234.02c5.154,6.259,1.835,10.641,3.774,17.614
		c-3.164-2.67-1.308-7.741-1.887-11.323C94.176,237.912,92.743,236.316,92.676,234.02z"/>
	<path style="fill-rule:evenodd;clip-rule:evenodd;fill:#608A46;" d="M97.709,245.343c1.732-0.868-0.511,7.621,1.258,8.808
		C95.929,255.147,97.715,248.415,97.709,245.343z"/>
	<path style="fill-rule:evenodd;clip-rule:evenodd;fill:#608A46;" d="M118.468,264.844c-4.019,4.751-10.394-2.503-12.581-5.661
		c0.427-1.413,2.31-2.732,0.629-4.403c-1.501,1.225-2.433,3.02-4.403,3.774c-2.37,7.779,3.179,11.503,5.032,16.984
		c-0.56,0.279-1.125,0.553-1.258,1.258c-5.721-2.247-8.791-7.145-11.323-12.581c-1.66,2.114-3.547,4.002-5.662,5.662
		c-4.329-4.154,2.871-7.601,3.774-12.582c0.446-2.458-0.3-12.165-1.887-16.355c-1.664-4.392-6.275-5.867-8.807-10.065
		c-22.035-9.628-39.931-23.395-56.616-38.373c-0.01-2.297-1.788-2.824-2.517-4.403c-0.838,0-1.677,0-2.516,0
		c-8.392-14.255-17.647-31-19.501-49.696c2.031-0.563,0.884,2.052,1.887,2.517c5.075,6.668,8.87,14.615,11.952,23.275
		c-3.997-5.229-6.39-12.062-9.436-18.243c-0.492,7.416,5.473,13.816,8.178,20.13c0.102,0.737,1.146,0.531,1.887,0.63
		c2.154,7.072,3.91,14.542,8.178,19.501c-0.83-5.498-6.263-15.078-6.291-21.389c2.758,1.436,1.995,6.393,3.145,9.437
		c3.987,6.078,7.579,12.551,11.323,18.872c5.086,3.931,9.691,8.342,14.469,12.581c-1.54-3.918-7.618-8.734-11.953-11.952
		c-4.371-7.372-9.134-14.352-12.581-22.646c3.098,3.821,4.828,9.011,8.178,12.581c-1.459-7.139-5.927-11.268-7.549-18.243
		c2.745-0.104,1.272,4.008,4.403,1.888c-1.615,2.288-1.18,4.445,0,6.92c2.998-5.609-3.33-13.988,5.662-14.469
		c-0.87,1.856-2.905,2.547-3.774,4.403c1.114,8.115,5.076,16.728,5.661,23.275c1.81,3.223,6.011,4.054,6.92,8.178
		c-4.218-2.911-6.842-7.417-10.065-11.323c-2.028,1.298,2.268,7.121,3.774,8.808c2.525,2.825,6.43,4.526,9.436,7.548
		c5.777,5.809,11.222,12.617,17.614,16.356c-4.922-8.499-14.964-11.876-19.501-20.76c0.509,0.12,0.627,0.632,1.258,0.63
		c-2.247-5.931-5.471-10.885-7.549-16.985c3.982,0.841,1.625,8.021,6.291,8.178c0.986,3.627,3.499,5.728,5.032,8.808
		c-1.076-0.028-1.629,0.467-1.887,1.258c1.187,3.846,4.279,5.786,6.92,8.178c0.094-1.562-0.325-2.61-1.258-3.146
		c0.863-1.425,2.591,1.554,3.774,1.888c-3.576-8.166-10.238-13.248-13.839-21.389c5.623,4.442,7.687,12.443,13.839,16.355
		c-0.436,4.001,1.688,5.442,2.517,8.178c-1.016,0.178-1.083-0.594-1.887-0.629c-0.106,3.069,2.213,0.775,3.145,1.888
		c5.857,9.24,16.665,13.53,24.534,20.759c-0.181-2.974-5.469-6.266-7.549-9.436c-5.737-1.812-7.816-7.281-13.21-9.437
		c-4.333-8.248-6.02-19.142-10.694-27.05c0.221-3.785,0.079-7.208-1.887-8.807c2.307-2.629-0.759-10.909,0.629-16.355
		c0.153-0.602,1.177-1.049,1.258-1.888c0.414-4.292-0.678-8.654-0.629-13.21c0.085-7.863,1.961-15.561,0.629-22.647
		c-0.711-0.457-2.698,1.236-5.033,0c-0.334-3.557,4.324-0.724,5.033-1.887c-0.355-7.984-2.932-14.826-1.887-21.388
		c1.244-7.812,6.563-13.87,8.807-20.759c5.415-1.933,16.416-4.723,19.501,1.258c-4.526,0.507-7.322,2.743-11.953,3.146
		c0.315,4.976-1.513,9.57-3.145,13.21c-0.833,1.857-1.748,3.861-3.146,5.032c0.314-4.089,2.758-6.049,3.146-10.065
		c-1.935,2.679-3.055,6.171-4.404,9.436c-1.019-5.639,5.144-9.53,4.404-16.985c-1.427-1.896-1.672,2.438-1.887,2.516
		c-0.902,0.331-0.373-1.866-0.629-1.887c-2.274-0.186-4.982,10.604-5.032,10.694c-0.824,1.465-1.329,2.538,0-1.887
		c-0.341,1.135,1.382-2.061,1.258-5.033c-3.438,3.301-3.62,8.33-3.145,12.582c0.525,1.782,3.865,0.748,5.032,1.887
		c-0.157,9.368,1.709,12.905,2.517,21.388c-2.748-5.22-2.604-13.332-3.774-20.13c-2.486,1.822-0.599,7.258,0,11.323
		c0.97,6.592,2.775,13.272,5.032,18.243c-4.367-2.903-6.272-19.637-7.549-29.566c-0.875,2.816-2.308,1.383-1.887-1.888
		c-2.492,2.075-0.376,7.845,0,13.21c0.368,5.252-1.095,11.977,2.517,13.84c0.366-5.614-2.381-13.551-1.887-21.389
		c1.877,6.896,1.617,19.768,5.662,26.421c-1.166-1.141-1.564-3.049-3.146-3.774c-1.481,0.531,0.039,3.244,0.629,3.774
		c-1.37,1.733-1.976-2.595-2.516-3.774c-2.967,1.229,1.462,5.106-0.629,7.549c1.518-2.691,2.721,2.768,5.032,3.145
		c0-0.628,0-1.258,0-1.887c2.022,1.752,2.042,5.508,4.404,6.92c-1.864,1.821-2.472-2.949-3.146-4.403
		c-2.507,0.2-4.647,0.034-5.662-1.258c-1.844,0.533,0.376,2.025,0,3.145c-1.188-0.069-0.437-2.079-1.887-1.887
		c-0.17,3.203,3.422,8.061,0.629,8.178c-0.236,4.01,2.401,5.147,4.404,6.92c1.224,2.995-1.92-2.102-3.774-1.888
		c1.063,3.759,3.113,6.532,6.919,7.549c5.211,14.846,6.691,30.978,13.21,45.293c-2.212-0.724-2.304-3.567-4.403-4.403
		c0.156-0.684,1.251-0.427,1.258-1.259c-1.045-5.125-4.36-12.809-6.291-18.242c-0.535-1.507,0.224-4.56,0-5.662
		c-1.418-7.005-4.42-13.557-8.807-18.243c-1.108,1.565-1.04,0.918-2.517,0c0.555,3.85,2.628,6.18,3.774,9.437
		c-2.288-1.067-1.848-4.862-4.403-5.662c0.327,3.029,1.774,4.937,3.146,6.92c-1.93,2.293-1.718-2.853-3.146-3.146
		c-0.541,1.613,1.529,6.003,3.146,7.549c1.421-0.352-0.763-0.98,0.629-1.887c1.589,2.604,3.492,4.896,4.403,8.178
		c-2.579-0.356-1.883-3.988-3.774-5.032c-1.712,3.407,1.465,7.328,3.146,9.436c1.278,0.192-0.129-1.817-0.629-1.887
		c3.788,1.25,3.989,11.522,6.919,15.727c0.105-4.935-3.268-11.825-4.403-17.614c2.516,1.749,2.319,5.432,3.146,8.178
		c1.289,4.283,3.283,8.605,3.774,13.211c-1.388-0.499-0.818-2.957-2.517-3.146c0.725,0.743,0.712,2.224,0.629,3.774
		c7.057,5.524,11.212,13.95,16.355,21.389c-4.874-3.727-9.309-13.335-14.468-18.872c-0.854,0.194-0.522,1.574-0.629,2.516
		c-2.638-1.502-1.328-4.154-1.887-6.29c-2.839-10.846-10.46-18.505-13.21-29.566c-0.889,4.853,3.232,9.673,4.404,15.098
		c2.004,9.281,4.63,20.249,10.065,26.421c1.822-1.261-1.814-2.33-1.258-4.403c3.044,4.504,5.335,9.763,10.694,11.952
		c-0.667-3.115-5.806-7.188-8.178-10.694c2.676-1.397,3.296,4.656,6.291,5.032c0.861,3.752,4.569,4.657,5.033,8.808
		c1.07-0.231,1.187,0.49,1.258,1.258c1.975,0.712,1.662-0.181,3.146,0.629c1.958,4.333,5.023,7.558,8.178,10.694
		c-0.356,5.254,0.085,14.958,3.146,18.872c-0.815,1.826-0.815,4.464,0,6.291c0.429,0.848,1.916-0.549,2.516,1.258
		c-0.102,0.737-1.147,0.53-1.887,0.629c0.565,2.58,1.924,4.366,3.145,6.291c3.385-3.841-3.183-6.83-1.258-13.211
		c1.28,0.607,1.358,2.416,1.258,4.403c3.403-1.26,0.253-4.904,0-6.919c-0.219-1.749-0.396-6.951,0-10.065
		c0.13-1.019,1.125-2.065,1.259-3.146c1.371-11.083-0.476-24.872,0.629-37.115c0.428-4.737,0.408-8.657,0.629-13.21
		c0.195-4.018,1.986-9.518,2.517-15.098c0.89-9.361,2.292-15.742,3.146-25.163c0.775-8.566,4.832-16.358,6.29-24.533
		c1.121-6.285-0.555-13.436,1.259-18.872c-4.975-13.269-4.343-32.144-18.243-36.486c8.046-4.72,13.69,8.592,20.13,10.694
		c0.087,2.22,1.801,2.813,1.888,5.033c1.842-0.321,3.546,1.998,3.145-1.258c2.347-0.25,0.265,3.93,1.888,4.404
		c3.245-0.811-0.608-4.063,0-6.291c3.354,0.631,0.292,7.676,3.774,8.178c1.902-0.952-0.521-2.761,0-4.404
		c2.475,1.299,1.709,5.84,3.774,7.549c1.403-0.092-0.816-1.585,0-3.145c0.733,0.943,1.816,1.538,1.887,3.145
		c1.364,0.106,0.285-2.231,0.63-3.145c1.945-0.059,1.874,1.899,1.887,3.774c1.364,0.106,0.285-2.231,0.629-3.146
		c2.984,0.581,2.068,5.062,5.662,5.032c2.794,5.803,4.376,12.818,9.436,16.356c-1.071-6.058-5.284-8.974-6.92-14.468
		c4.097,2.823,5.415,8.424,8.178,12.581c2.61-3.144-1.275-9.812-1.258-14.469c-3.365-4.603-6.456-9.48-11.323-12.581
		c-3.556,0.41-5.713-0.578-6.92-2.516c-0.737,0.102-0.53,1.147-0.629,1.887c-1.242-0.435-1.677-1.678-1.887-3.146
		c3.786-1.911,7.509,2.576,11.952,1.887c1.106,0.151,1.434,1.083,1.258,2.516c1.937,0.469,1.209-1.727,3.146-1.258
		c0.846,1.251,1.199,2.995,1.887,4.403c0.854-0.195,0.522-1.575,0.63-2.516c2.253,1.42,4.885,2.516,4.403,5.032
		c1.163-0.095,0.386-2.13,1.258-2.516c1.836,0.891,3.093,2.359,5.662,2.516c5.649,10.706,11.271,21.44,20.13,28.937
		c-0.062-5.187-6.719-9.213-10.065-13.21c-1.854-6.113-6.214-9.722-7.549-16.355c2.44,1.443,3.279,4.537,4.403,6.919
		c3.242,6.873,7.712,13.964,13.84,18.872c0.5-3.446-5.194-6.121-6.291-10.065c-0.56-0.489-1.42-0.676-2.516-0.629
		c-2.241-7.614-6.915-12.796-8.178-21.388c-1.178-1.758-3.262-2.61-3.774-5.033c-4.04-1.483-8.229-3.475-13.211-3.774
		c-2.613-0.157-5.025,2.006-6.92-0.629c0.905-3.001,5.593-3.676,6.92-1.258c1.884-0.414-0.602-1.345,0-2.516
		c1.076-0.028,1.63,0.467,1.888,1.258c0.733-0.943,1.816-1.538,1.887-3.145c3.816,1.216,6.506,3.559,10.065,5.032
		c0.399-2.303-4.968-4.247-6.92-6.291c2.207-0.204,4.937,2.155,6.92,3.774c4.131,3.374,6.918,7.161,10.064,11.952
		c-0.934,2.251,0.849,4.816,2.517,6.291c-2.728-12.423-12.616-26.315-29.566-24.534c0.723-5.36,12.414,0.556,13.84-1.887
		c1.508-0.25-0.349,2.865,1.887,1.887c1.843-2.73-2.735-5.43-5.032-6.291c-6.603-2.473-13.727,0.851-18.872,3.146
		c-1.857,0.547,1.46,0.942,0.629,2.516c-1.459-0.201-2.415,0.101-3.145,0.629c-0.311,1.975,2.168,1.662,0.629,3.145
		c-8.349-5.211-13.315,6.49-21.389,7.549c3.363-4.814,7.809-8.547,13.84-10.694c0.641-0.827,0.616-2.319,1.258-3.146
		c4.072-2.009,8.054-4.108,11.952-6.291c-1.271-2.082-2.189-0.599-3.774,0c0.379-2.266-1.92-1.854-1.887-3.774
		c-2.14,1.189,1.077,2.205,0.629,3.774c-1.658-0.439-1.33-2.864-3.146-3.146c-2.079,0.943,1.308,1.538,0.629,3.146
		c-1.664-0.991-1.953-0.701-1.258,1.258c-2.144,0.466-1.037-2.318-2.517-2.516c0.461-1.12,1.145-0.091,1.888,0
		c0.797-1.039-2.733-2.667,0.629-3.774c-3.88-0.525-4.194,2.516-7.549,2.516c1.628-2.146,4.963-2.585,7.549-3.774
		c-3.433-1.737-7.403,1.391-10.694,1.887c0.542-1.764,3.275-1.338,4.403-2.516c-0.194-0.854-1.575-0.522-2.517-0.629
		c7.788-5.059,16.952-0.771,19.502,6.291c11.316,2.15,23.323,0.895,24.533,13.839c6.332,5.83,8.52,15.805,12.581,23.905
		c-1.223,5.865,4.714,14.609,6.291,20.759c0.676,2.635,0.075,5.598,0.629,8.178c0.804,3.743,2.661,6.66,3.146,10.065
		c0.403,2.832-0.47,5.603,0,8.178c0.216,1.183,1.196,1.378,1.258,2.516c0.679,12.477-1.308,29.543-5.661,37.744
		c-3.663,6.9-8.919,10.806-13.84,18.872c-5.393,3.771-9.631,7.662-15.098,11.323c-6.5,4.353-13.95,10.454-21.388,15.098
		c-1.909,1.191-3.928,2.015-5.662,3.146c-6.487,4.228-14.997,8.19-18.872,15.727c0.924,2.809-0.338,8.324-0.629,10.064
		c-2.853,0.337-1.47-3.562-2.517-5.032C104.355,255.708,113.259,261.496,118.468,264.844z M31.028,193.131
		c-1.551-1.666-2.959-4.457-4.404-6.92c-1.354-2.311-2.334-5.776-4.403-5.662C25.253,185.217,25.065,193.078,31.028,193.131z
		 M54.303,212.002c-1.476-2.103-5.192-5.273-6.92-5.032C49.148,208.785,51.813,213.006,54.303,212.002z M170.052,83.673
		c-0.555-2.816-3.311-6.734-5.662-5.662C167.162,79.014,167.298,82.653,170.052,83.673z M59.336,82.415
		c2.911,0.474,0.874-2.403,1.887-2.516c1.922,0.454,2.292-0.644,3.774-0.629c-0.245,0.898-0.755,1.061,0,1.887
		c1.875-0.013,3.833,0.059,3.774-1.887c-3.951-0.373-4.683-1.495-8.178-1.258C60.814,80.197,57.395,80.4,59.336,82.415z
		 M168.164,83.673c-2.052-1.111-3.643-5.98-5.661-5.033C165.312,78.994,165.707,85.059,168.164,83.673z M63.739,89.335
		c-0.406-1.583,2.883-4.315,0-4.404C64.261,86.574,61.837,88.383,63.739,89.335z M171.938,89.964
		c-0.427-2.089-0.574-4.458-2.516-5.033C169.91,86.96,170.737,88.649,171.938,89.964z M178.229,106.949
		c-2.708-7.777-6.977-13.992-10.694-20.759C169.261,94.948,173,101.693,178.229,106.949z M117.839,90.593c0,0.629,0,1.258,0,1.887
		c1.633-0.255,1.816-1.958,2.517-3.145C118.32,88.557,119.875,91.37,117.839,90.593z M127.904,94.367
		c-1.299-1.008-0.901-3.712-3.146-3.774C125.031,92.244,126.486,95.946,127.904,94.367z M166.906,116.385
		c-5.003-4.853-8.111-11.6-11.952-17.614c-0.564,3.5,1.375,4.496,2.517,6.291c3.514,5.503,5.724,12.31,11.323,15.727
		c-2.466-3.133-0.116-16.035-5.033-17.614c0.143,3.228,3.134,6.911,2.517,8.807c-1.094-2.89-3.084-4.884-5.032-6.919
		c-0.892-3.626-2.239-5.178-3.774-7.549c-1.83-2.826-3.344-6.615-5.662-6.291C157.212,99.238,161.511,108.36,166.906,116.385z
		 M154.954,105.062c3.79,4.808,5.189,12.005,10.065,15.727C163.015,114.196,159.364,109.249,154.954,105.062z M156.212,110.723
		c-0.361,2.433,2.745,6.347,5.033,8.178C160.406,115.335,158.876,112.462,156.212,110.723z M180.746,122.046
		c-4.411-6.703-9.924-12.304-14.469-18.872C168.743,111.822,174.578,117.101,180.746,122.046z M159.357,98.142
		c1.166,2.248,1.846,4.99,3.774,6.92c-1.421-5.499-3.157-10.683-6.92-13.839C155.641,94.354,158.281,96.067,159.357,98.142z
		 M120.984,113.239c-0.944-2.62-1.785-5.344-3.774-6.92c-0.097,4.29,2.787,5.601,3.146,9.436c-1.212-0.255-0.497-2.438-2.517-1.887
		c1.856,8.838,5.671,15.718,8.178,23.905c2.103-1.343,3.077-0.541,5.033-1.258c-1.389-3.224-2.602-6.625-5.033-8.807
		c-1.801,0.977,1.311,2.935-0.629,3.774c-1.111-2.663-2.427-5.122-3.146-8.178c2.642-0.125,1.221,3.812,3.774,3.774
		c0.593-3.528-1.605-4.265-1.887-6.919c5.183,3.659,3.854,12.59,8.807,15.098c-0.729-4.521-4.497-9.332-3.774-13.21
		c0.92,1.806,0.852,4.6,2.517,5.662c0.565-3.669,0.387-4.925,0.629-9.436c-0.361-1.945-2.646-1.967-2.517-4.404
		c0.992,0.057,0.493,1.604,1.888,1.258c1.585-3.271,0.127-8.355,0-11.952c-3.621,0.266-2.226-4.484-5.032-5.033
		c-0.702,1.369-4.773,4.41-0.63,5.033c0.107-0.941-0.225-2.322,0.63-2.517c1.628,1.535,3.982,5.641,3.145,7.549
		c-1.286-1.649-1.002-4.868-3.774-5.032c-0.394,4.182,4.99,5.896,3.146,9.436c-1.428-2.556-1.959-6.009-4.403-7.549
		c-0.515,3.687,7.26,10.499,3.774,15.098c0.03-1.918-0.571-3.203-1.887-3.774c-0.362,1.106,0.76,3.696-0.63,3.774
		c0.552-1.296-1.631-2.825-1.887-1.258c0.349-0.002,0.714,0.51,0,0.629c-1.62-0.477-2.186-2.008-1.888-4.403
		c1.478,0.201,1.408,1.947,2.517,2.516c0.031-1.908-1.116-3.35,0-5.032c0.077,1.601,0.916,2.439,2.517,2.516
		c-0.399-7.162-10.791-11.502-5.662-18.243c-1.812-1.87-1.092,1.575-3.146,1.258c-0.756-3.063,2.909-1.705,1.888-5.033
		c-2.347-0.668-0.996,2.359-3.146,1.888c-0.551,7.68,4.364,9.895,6.291,15.097c-2.178-1.192-3.824-6.221-5.662-5.662
		C118.998,106.852,122.159,110.578,120.984,113.239z M124.13,100.029c0.093-1.561,0.117-3.053-1.259-3.146
		c0.295,1.972-1.581,1.773-2.516,2.517c0.072,1.604,0.118,3.236,1.887,3.146C122.067,100.902,122.03,99.397,124.13,100.029z
		 M177.601,100.658c-0.944-2.62-1.785-5.344-3.774-6.919C174.771,96.358,175.611,99.083,177.601,100.658z M125.388,98.142
		c0.528-0.73,0.83-1.687,0.629-3.145c-0.629,0-1.258,0-1.887,0C124.035,96.559,124.455,97.607,125.388,98.142z M136.082,105.062
		c-0.472-2.149,2.556-0.799,1.887-3.146c-1.523-0.285-2.781,0.234-3.773,0C135.611,102.177,134.101,105.365,136.082,105.062z
		 M144.889,117.643c-1.476-4.605-5.025-7.136-7.549-10.694c-0.939,2.477-0.74-0.117-2.516,0c-0.032,4.646,2.536,6.69,4.403,9.436
		c1.315,1.62,1.527,4.343,3.774,5.032c1.127-5.204-5.272-8.079-6.291-13.21c0.42,0,0.839,0,1.258,0
		C139.961,111.667,141.525,115.555,144.889,117.643z M151.809,120.159c-2.869-4.498-9.513-11.352-12.581-13.21
		c1.154,2.935,2.729,3.807,4.403,5.662c2.225,2.463,4.266,4.412,5.661,6.919c1.887,3.388,0.655,8.626,5.662,10.065
		c0.118-4.378,3.278-15.933-3.146-15.727c-0.469,1.937,1.727,1.209,1.258,3.146c-1.483-0.194-1.17-2.185-3.145-1.887
		c1.246,3.793,5.59,7.82,3.774,12.582C153.215,124.474,152.917,121.896,151.809,120.159z M144.26,107.578
		c-0.718,4.493,4.044,3.505,3.774,7.549C152.299,113.651,145.885,109.166,144.26,107.578z M168.794,114.498
		c3.989,2.571,6.286,9.986,10.693,10.065c-3.058-4.7-6.736-8.78-10.693-12.582C168.794,112.82,168.794,113.659,168.794,114.498z
		 M144.889,133.999c-1.729-7.707-7.16-11.712-10.693-17.614C136.405,123.61,140.698,128.753,144.889,133.999z M139.228,128.966
		c-1.747-2.836-2.793-7.18-5.662-8.807c1.933,5.826,4.887,10.63,8.808,14.468C143.563,132.348,140.449,130.95,139.228,128.966z
		 M133.565,124.562c0.967,5.534,3.187,9.814,6.92,12.582C139.996,131.133,136.246,128.383,133.565,124.562z M148.663,139.031
		c-0.729-6.819-2.351-12.747-6.919-15.727c-2.267-3.605-3.637-8.106-6.92-10.694c2.31,7.964,7.531,13.018,11.323,19.501
		c0.989,9.496,4.115,16.853,10.064,21.388C155.976,146.397,150.907,144.125,148.663,139.031z M156.212,154.757
		c-3.363-0.829-3.545-4.842-6.29-6.29c-2.731-3.624-2.572-13.278-7.549-12.582c3.75,7.573,7.223,15.423,11.952,22.017
		c-2.896-2.653-6.224-6.117-8.178-10.694c-1.903-4.456-1.958-9.688-5.662-9.436c1.102,7.918,8.133,15.351,11.952,22.646
		c-4.551-2.164-5.651-11.117-10.693-10.694c3.302,4.875,6.678,9.678,10.064,14.469c-4.943,8.477-4.783,22.057-11.952,28.308
		c4.403-8.807,7.397-19.022,10.065-29.565c-4.16-4.229-5.605-11.171-11.323-13.84c2.015,6.372,7.09,9.686,9.436,15.727
		c-2.705,7.989-5.578,15.81-7.549,24.534c-2.007-0.54-1.945,0.989-3.146,1.258c0.439-2.326-0.995-2.779-3.145-2.517
		c0.291-1.969-0.547-2.808-2.517-2.516c0.515,5.04-0.684,8.788-1.259,11.952c-0.21,1.157,1.033,3.944-1.258,3.774
		c0.291-3.961,2.983-11.325,0.629-13.84c-0.841,2.977-1.34,6.878-1.887,10.694c-0.154,1.072,1.139,4.131-1.258,4.403
		c-0.754-2.473,1.925-4.729,0-6.291c-1.49,3.481-1.8,4.041-1.888,9.437c1.938,0.47,0.767-2.169,3.146-1.258
		c1.48,6.093-6.224,8.434-5.033,13.839c0.008-0.635,1.104-0.791,1.259,0c-1.792,1.787-6.208,4.258-5.032,6.92
		c4.38-5.265,11.419-7.872,13.839-15.098c1.708-0.45-0.45,2.967,1.259,2.517c0.564-2.79,3.021-3.689,4.403-5.662
		c-3.268-0.414-1.356-5.124,0-6.291c0.763,2.528-1.666,4.604,0.629,5.033c1.189-1.956,0.827-5.464,2.517-6.92
		c0.831,0.008,0.574,1.103,1.258,1.258c2.838-4.081,4.465-9.374,6.92-13.839c0.06,0.988-0.085,2.181,1.258,1.887
		c0.551-2.228,0.078-1.547,0.629-3.774c-1.236-0.188-1.247,0.85-1.887,1.259c0.448-3.116,0.971-6.158,2.516-8.179
		c0.285,2.345-2.385,5.68,0,6.291C154.312,173.839,157.033,164.07,156.212,154.757z M132.937,174.259
		c1.775,0.846,1.577-3.334,2.517-1.259c0.354,2.482-3.265,4.242-2.517,5.033c0.607-2.087-0.281,3.44-1.887,3.145
		c1.261-1.932-0.748-2.718-1.259-5.032c-0.948-4.302,0.27-11.65-3.774-13.21c-0.344,0.914,0.735,3.251-0.629,3.145
		c0.31-4.713-2.399-6.407-3.774-9.436c1.237,0.188,1.248-0.85,1.888-1.258c1.574,1.57,0.341,5.949,3.146,6.29
		c1.867-2.356-2.733-6.279-1.259-8.178c2.084,2.11,1.36,7.027,4.403,8.178c0.434-2.529-0.603-3.591-0.629-5.661
		c-6.811-7.238-9.486-18.612-14.469-27.679c1.214,10.529,5.775,17.709,9.437,25.792c-3.86-0.637-2.248,2.801-5.662,1.259
		c-0.304,2.82,2.224,2.809,2.517,5.032c-2.168-0.348-1.529-3.504-4.403-3.146c-1.445,1.901,4.56,5.05,3.146,6.92
		c-3.912-4.057-6.816-9.12-10.065-13.84c0.634,6.71,6.523,11.505,7.549,15.727c-3.353-1.68-3.104-6.961-6.92-8.178
		c0.458,1.717-1.25,1.267-1.258,2.517c3.646,6.84,8.346,15.976,8.807,23.904c-1.66-1.958-1.413-7.562-3.774-6.92
		c2.041-4.563-3.309-6.235-5.661-6.919c-2.024,6.752,4.752,13.143,6.29,20.13c0.643,2.916,1.746,8.04-0.629,10.064
		c0.73-7.269-0.768-15.955-6.29-18.871c-0.133,3.131,2.897,5.441,3.774,8.807c1.304,5.011,0.816,10.832,0,16.355
		c0.601-11.714-2.098-20.13-6.291-27.05c0.037,7.097,4.627,12.981,3.146,19.501c-0.838-5.034-1.978-9.765-3.774-13.839
		c-0.867,0.811-0.623,2.732-0.629,4.403c0.74,0.099,1.785-0.108,1.887,0.629c-1.586,1.896,2.432,6.139,0,8.807
		c-0.099-0.74,0.108-1.785-0.629-1.887c-1.565,5.288,0.665,10.667,0.629,16.355c3.901,0.329,0.105-4.182,1.888-5.032
		c2.569,1.175-0.439,4.917,1.258,7.549c-0.866,0.026-1.382-0.297-1.888-0.63c-0.492,2.37-0.53,4.759,0.63,6.92
		c1.053-1.043,0.5-3.693,0.629-5.661c0.897,0.245,1.061,0.755,1.887,0c0.724-3.84-2.146-6.784,0-8.808
		c0.066,1.611,0.356,2.999,1.259,3.774c0.279-1.606,0.882-2.892,1.887-3.774c-0.14,4.065-3.809,7.921-2.517,11.323
		c2.177-3.065,2.031-8.453,4.404-11.323c0.456,1.925-1.086,1.851-0.63,3.774c5.291-2.255,6.176-17.845,2.517-20.759
		c0.284,3.744,0.9,12.416-1.258,15.727c0.769-6.918,1.14-12.553,0-18.243c-0.238-1.187-1.377-1.586-1.888-3.145
		c-0.316-0.969,0.364-2.054,0-3.146c-1.018-3.059-4.482-6.284-3.146-9.437c3.054,5.334,3.646,13.131,8.179,16.985
		c0.106-0.941-0.226-2.322,0.629-2.517c0.013,1.875-0.059,3.833,1.887,3.774c0.362-1.105-0.76-3.696,0.629-3.774
		c-0.03,1.918,0.572,3.203,1.888,3.774c1.848-4.37,0.711-9.005,0-12.581c-0.812-4.084-0.387-9.289-3.146-11.323
		c-1.281,4.899,3.8,12.009,1.887,18.872c-0.225-3.428-1.442-6.67-1.887-8.808c-0.438-2.104,0.236-5.678-1.887-6.29
		c-3.177,0.537,0.829,4.517-1.259,5.661c-0.75-4.918-4.744-9.925-4.403-13.839c1.797,2.396,1.887,6.501,4.403,8.178
		c0.68-3.611,4.55-6.5,3.774-10.065c2.075,0.363,0.902,2.376,0.629,3.774c0.186,1.283,1.702,1.233,1.888,2.517
		c-1.126,6.5,3.456,14.255,1.258,22.018c1.212,0.255,0.497,2.438,2.517,1.887c0.408-3.156-0.824-7.954,0.629-10.065
		c0,1.678,0,3.355,0,5.033c2.75,0.443,1.341-3.272,3.146-3.774c0.348,1.491,2.433,2.609,3.774,1.258
		c0.06,0.988-0.084,2.182,1.258,1.888c0.68-4.369,3.597-9.444,5.033-14.469c1.139-3.986,3.376-11.2,0.629-13.211
		c0.334,7.558-2.523,11.25-4.404,15.727c-1.097,2.612-1.352,5.937-3.773,7.549c2.59-8.313,6.387-15.42,7.549-25.162
		c-1.887-1.276-3.18-6.444-5.033-5.662C138.705,159.063,132.955,165.467,132.937,174.259z M124.13,137.773
		c-0.782-7.605-4.919-11.856-6.92-18.243c-1.706,19.793,9.966,28.148,15.098,42.776c1.744-2.873-0.903-6.016-0.629-9.436
		c-6.071-6.093-10.646-17.03-13.211-24.534C121.086,130.751,121.012,135.859,124.13,137.773z M135.453,140.918
		c-0.602,1.172,1.884,2.103,0,2.516c-2.188-0.748-0.329-5.542-2.517-6.29c-0.261,1.416-3.449-0.094-3.146,1.887
		c1.422,1.933,3.18,3.531,3.774,6.291c-2.697-1.496-2.498-5.889-6.29-6.291c1.136,3.896,3.525,6.539,5.032,10.065
		c-4.272-1.809-4.026-8.136-8.178-10.065c2.086,7.978,9.26,10.87,9.436,20.759c5.083-2.363,0.106-10.894,2.517-15.727
		c-0.515,2.401,1.339,2.436,2.517,3.145C138.726,143.936,137.547,141.969,135.453,140.918z M138.599,143.434
		c0.735,1.498,0.959,4.831,3.774,4.404c-2.323-6.694-5.002-13.031-8.808-18.243C134.525,134.459,136.651,139.474,138.599,143.434z
		 M113.436,133.37c-0.354,6.797,2.387,11.287,4.403,15.098c1.082,2.044,1.082,5.708,4.403,5.032
		C119.814,146.282,116.436,140.015,113.436,133.37z M112.178,139.66c-1.664,3.555,2.709,8.725,1.887,11.323
		c-1.315-1.619-1.841-4.029-3.146-5.661c0.875,4.158,1.851,8.215,5.033,10.065c1.005-2.126-2.67-2.685-0.629-3.774
		c0.802,1.295,1.003,3.19,3.145,3.145C117.959,150.576,114.412,144.193,112.178,139.66z M109.032,154.128
		c0.383,1.504-0.79,4.564,0.629,5.033C109.814,157.054,111.015,155.196,109.032,154.128z M108.403,228.359
		c0.079-2.668,3.15-5.628,1.258-8.178C109.153,222.469,105.214,226.364,108.403,228.359z M120.355,215.777
		c2.105-2.717,5.583-4.062,5.661-8.807c-9.78,7.221-9.562,26.628-18.242,31.453c1.751-2.244,5.055-6.252,4.403-8.807
		c-1.163,4.296-7.731,6.519-5.662,11.952c0.327-0.242,0.931-3.056,1.259-1.258c-1.065,2.449-3.4,3.308-1.888,5.661
		c4.584-6.344,10.475-13.221,16.355-18.242c1.717-1.466,5.117-2.055,4.404-5.033c-3.448,3.686-7.826,7.619-12.582,8.178
		C116.302,225.982,120.138,222.689,120.355,215.777z M128.533,218.922c0.731-1.155,4.105,0.331,3.146-2.516
		c-3.892,2.614-13.17,8.631-15.098,13.21C120.319,225.806,126.131,224.069,128.533,218.922z M155.583,147.208
		c2.159-4.774-5.028-5.92-3.774-9.436c1.515,1.211,2.088,3.364,3.774,4.403c0.641-2.816,0.61-7.537-0.629-11.323
		c-2.101,1.553-1.819,2.233-3.774,0c-0.174,1.103,1.771,3.139,0,3.774c-0.073-1.604-0.118-3.236-1.888-3.145
		c-0.705,0.133-0.979,0.698-1.258,1.258C150.627,137.487,151.585,143.868,155.583,147.208z M159.986,122.046
		c-0.146-2.999-1.753-4.538-3.146-6.291C157.05,118.692,158.189,120.698,159.986,122.046z M176.972,126.45
		c-1.37-4.292-5.062-6.262-7.549-9.436C170.561,121.537,173.062,124.697,176.972,126.45z M143.631,122.046
		c1.67,3.153,2.687,6.959,5.661,8.807C150.21,127.813,146.219,121.581,143.631,122.046z M150.551,129.595
		c1.563-0.251,0.198-4.351-0.629-6.291c-0.945-2.216-2.411-5.046-4.404-5.032C145.854,123.387,149.554,125.14,150.551,129.595z
		 M184.521,123.304c0.338-2.225-0.534-3.241-1.888-3.774C181.087,121.151,183.306,122.553,184.521,123.304z M163.132,166.081
		c-0.602-1.171,1.884-2.103,0-2.516c-3.087,1.917,1.488,3.821-0.629,6.29c4.355-2.354,3.313-10.106,7.549-12.581
		c0.257-2.679,0.291-5.58,1.258-7.549c1.357,2.417,0.754,6.796,3.146,8.178c-1.199-3.854-1.054-8.645-1.887-13.21
		c-0.715-3.915-2.156-12.263-3.774-13.21c0.962-1.831,0.158-4.652,0-8.178c-3.105-0.25-4.88-1.83-7.549-2.516
		c0.578,4.264,4.227,8.985,5.661,14.469c0.363,1.387-0.243,2.896,0,4.403c0.787,4.874,3.629,9.979,1.888,12.582
		c-3.111-2.342-1.138-9.767-4.404-11.952c-0.655,6.323,3.968,10.702,2.517,15.727c-0.743-2.778-2.374-6.336-3.146-10.065
		c-0.613-2.965,0.827-8.353-3.146-8.807c0.549,7.423,5.223,14.063,4.404,20.759c-2.317-7.329-3.573-15.719-6.92-22.017
		c-0.73,6.239,4.357,15.309,3.774,21.388c-1.895-3.978-1.611-10.132-4.403-13.21c1.279,3.306,1.17,9.291,1.258,11.952
		c-0.458-2.068,1.25-0.964,1.258,0c0.377,1.635-0.252,2.264-1.887,1.887c1.361,4.967,0.057,7.64,0.629,11.952
		c-0.028-2.544,2.202-2.83,2.517-5.032c-0.499-1.221-2.843-3.812-1.259-5.032c1.981-0.304,0.472,2.884,1.888,3.146
		c1.492-0.945,0.628-2.649,1.258-3.146c1.074,2.142,2.229,0.683,3.146-0.629C167.24,161.253,164.508,164.311,163.132,166.081z
		 M157.471,175.517c1.479-2.714,3.571-4.816,4.403-8.178C159.824,169.077,156.719,173.071,157.471,175.517z M161.245,135.886
		c1.089-4.555-1.769-10.312-3.774-13.839C158.05,124.933,158.122,133.475,161.245,135.886z M165.648,139.031
		c-0.41-6.93-2.972-11.708-5.662-16.356C161.548,128.453,162.28,135.06,165.648,139.031z M182.633,137.773
		c-5.606-3.62-7.171-11.282-12.581-15.098c-0.359,2.899,0.222,8.134,2.517,6.291c-0.825-0.009-0.802-1.745,0-1.887
		c4.101,5.125,6.618,11.834,11.323,16.355c0.072-3.224-0.455-4.207,1.887-2.516c0.378-5.276-0.696-14.347-6.291-15.727
		c0.272,5.188,6.705,7.545,3.774,13.84c-0.537-5.125-1.86-9.463-5.661-11.323C177.684,132.657,181.35,134.023,182.633,137.773z
		 M186.407,128.966c-0.576-3.198-2.172-5.377-5.032-6.291C182.191,125.633,184.258,127.342,186.407,128.966z M181.375,145.951
		c0.557-5.248-5.491-9.129-6.92-14.468c-0.743-0.091-1.426-1.12-1.887,0C176.15,135.658,177.479,142.087,181.375,145.951z
		 M173.826,145.322c0.502,2.291-0.759,5.39,1.887,6.291c1.248-5.325-3.752-9.601-2.516-16.985c-1.188-0.07-0.437-2.08-1.888-1.887
		C170.988,138.39,172.984,141.483,173.826,145.322z M178.858,147.838c-0.116-4.707-2.391-7.256-4.403-10.065
		C174.508,142.543,174.916,146.958,178.858,147.838z M187.666,151.613c-0.435-3.551,1.228-9.197-1.888-10.065
		C185.022,143.989,185.585,149.969,187.666,151.613z M183.892,164.823c-0.667,1.76-2.766,4.324-1.259,6.291
		c4.884-3.952,4.489-12.253,3.146-20.131c-0.398-2.338-1.101-5.136-2.517-6.29C183.594,151.281,184.187,157.607,183.892,164.823z
		 M182.633,164.823c1.262-5.338-0.271-13.081-1.258-18.243C180.255,151.776,181.206,160.1,182.633,164.823z M180.117,163.565
		c0.771-4.173-0.722-9.592-0.63-13.84c-0.139-0.49-0.526-0.731-1.258-0.629C177.133,153.255,178.453,160.103,180.117,163.565z
		 M178.858,167.968c0.269-1.2,1.798-1.139,1.259-3.146c-1.083-0.248-1.613,0.934-1.888,0c-0.671-4.152-0.016-9.63-2.517-11.952
		C175.559,159.106,175.955,164.791,178.858,167.968z M171.938,164.194c1.249-2.028,0.547-6.577-1.258-7.549
		C170.605,159.657,170.639,162.558,171.938,164.194z M17.817,178.663c-1.866-8.199-6.347-13.783-10.065-20.131
		C9.844,166.505,13.67,172.744,17.817,178.663z M173.826,165.452c-2.247-0.303-3.593,3.905-1.258,4.403
		c0.574-1.103,0.216-3.139,1.258-3.774c1.144,2.147-0.085,3.023,0,5.662c2.318-0.393,2.186-4.903,1.887-6.92
		c-0.318-2.149-1.272-4.761-2.516-6.291C173.135,161.111,173.073,163.688,173.826,165.452z M107.774,160.419
		c1.046,3.776,0.96,8.686,4.403,10.065C111.113,166.726,109.99,163.026,107.774,160.419z M144.26,164.194
		c-1.012,3.916-1.591,5.889-1.887,11.323c-1.592,1.021-2.201,3.947-3.146,6.291c-0.781,1.937-3.411,5.154-1.259,5.661
		c2.886,0.47,2.311-3.828,3.146-6.291c1.822-5.37,4.948-12.854,5.033-18.872c-0.63,0-1.259,0-1.888,0
		C144.26,162.936,144.26,163.565,144.26,164.194z M131.679,174.259c-0.438-1.828,0.697-10.219-2.517-11.323
		C129.578,167.456,129.489,172.534,131.679,174.259z M132.937,168.597c0.246-2.942,0.384-2.09,0.629-5.032
		c-0.804-0.035-0.871-0.807-1.887-0.629C131.949,164.971,130.851,168.376,132.937,168.597z M168.794,171.114
		c-0.059-2.599,3.466-4.89,1.258-7.549C169.854,165.907,166.949,168.818,168.794,171.114z M183.262,177.404
		c1.224-1.676,3.769-8.156,2.517-8.178C184.701,171.312,182.479,175.55,183.262,177.404z M153.696,183.066
		c3.685-2.82,7.574-8.774,8.178-12.581C159.551,175.082,155.682,178.132,153.696,183.066z M168.164,175.517
		c2.243,0.056,3.991-4.618,1.888-5.032C169.516,172.255,168.02,173.066,168.164,175.517z M182.004,176.146
		c0.749-1.753,0.721-3.828-0.629-5.032C179.282,172.667,180.936,174.456,182.004,176.146z M163.761,177.404
		c2.434,0.1,3.923-4.009,2.517-5.661C165.506,173.697,163.353,174.27,163.761,177.404z M176.972,174.259
		c1.461-0.217,2.947-0.407,2.516-2.517c-0.629,0-1.258,0-1.887,0C177.741,172.932,176.892,173.13,176.972,174.259z M160.615,179.292
		c0.888-1.86,4.175-4.604,2.517-6.92C161.807,173.793,159.36,177.378,160.615,179.292z M170.681,175.517
		c1.25,1.048,0.8-0.057,2.517,0c-0.345-0.914,0.734-3.252-0.629-3.146C172.374,173.855,170.383,173.542,170.681,175.517z
		 M107.145,178.663c0.526-0.841,0.736-5.395-1.258-5.662C105.91,175.285,105.534,177.966,107.145,178.663z M173.826,175.517
		c1.972,0.294,1.773-1.582,2.517-2.517c-0.63,0-1.259,0-1.888,0C174.596,174.19,173.746,174.388,173.826,175.517z M165.02,180.549
		c3.02,0.504,2.611-2.421,3.774-3.774C166.05,176.548,166.161,179.175,165.02,180.549z M156.212,200.679
		c1.248-1.647,0.306,2.48,0,3.146c3.036-0.714,3.536-2.844,2.517-5.032c3.881-1.151,6.486-3.579,10.065-5.032
		c-2.556,3.944-7.453,5.548-9.437,10.064c8.866-5.183,13.511-14.587,20.76-21.388c-0.139-2.025,1.112-2.662,0.629-5.033
		c-6.511,2.506-6.168,11.866-11.323,15.728c1.631-5.499,6.034-8.225,6.92-14.469c-4.659,1.461-5.101,7.142-7.549,10.694
		c-1.538,2.229-4.056,3.777-5.662,5.661c-0.105-1.423,3.024-2.767,1.258-3.774C161.6,193.913,156.367,197.47,156.212,200.679z
		 M172.568,179.292c-2.801,0.345-3.222,3.069-4.404,5.032C170.258,185.465,172.206,181.889,172.568,179.292z M169.423,180.549
		c-2.251-0.514-3.123,1.339-1.888,2.517c-1.182,1.754-5.006,0.865-5.032,3.774C167.153,187.086,167.626,183.156,169.423,180.549z
		 M166.277,181.808c-1.843,0.044-3.547,0.228-3.146,2.516C164.664,183.969,166.368,183.786,166.277,181.808z M168.794,186.211
		c-2.853,0.292-3.854,2.438-5.662,3.774c-0.738,1.555-2.614-1.526-2.517,1.258C163.709,192.434,167.464,188.877,168.794,186.211z
		 M157.471,188.098c2.728,0.422,1.448-3.164,4.403-2.516c-0.384-1.505,0.789-4.564-0.629-5.033
		C161.926,184.629,158.129,184.038,157.471,188.098z M152.438,189.986c1.77,0.091,1.814-1.541,1.888-3.146
		C152.359,186.552,152.314,188.184,152.438,189.986z M146.776,199.421c-2.112,0.635-5.834,2.944-5.032,4.403
		c0.035-0.384,0.094-0.744,0.629-0.629c2.019-0.552,1.304,1.632,2.516,1.888c1.582-3.669,6.234-7.596,5.662-11.323
		c-0.01,0.824-1.745,0.801-1.888,0c1.198-0.271,1.581-1.355,3.146-1.259c0,0.42,0,0.839,0,1.259c2.484-1.081,4.08-3.05,5.032-5.662
		c-2.819,0.669-3.592,5.291-6.29,2.517C148.272,193.049,146.297,195.873,146.776,199.421z M157.471,195.018
		c1.77-0.118,2.68-1.095,2.516-3.146C158.217,191.991,157.307,192.967,157.471,195.018z M120.984,205.083
		c0.567-3.627,2.426-9.766,0-12.582C120.029,195.334,119.871,202.276,120.984,205.083z M123.501,200.05
		c1.091-1.844,1.482-4.388,1.258-7.549c-0.629,0-1.258,0-1.888,0C123.273,194.827,122.057,198.768,123.501,200.05z M154.325,194.389
		c-2.841,0.305-2.263,4.028-2.517,6.92c2.318-1.246,4.578-2.552,5.032-5.662c-2.304-0.584-2.82,3.833-4.403,1.888
		C153.54,196.959,154.623,196.365,154.325,194.389z M149.922,210.745c0.351-1.536,2.434-1.34,1.887-3.774
		C149.969,206.648,148.472,209.858,149.922,210.745z M152.438,203.825c-1.067-0.61-1.616-1.738-1.258-3.774
		c-4.206,1.49,0.499,4.306-1.888,6.92C151.111,206.693,152.16,205.644,152.438,203.825z M122.242,208.228
		c1.217-0.911,3.123-4.384,1.259-6.29C123.74,204.305,120.513,206.458,122.242,208.228z M104,217.036
		c0.697-4.282,1.027-10.777-1.259-13.84C104.896,207.39,101.212,214.302,104,217.036z M145.518,206.341
		c-0.578,0.642-3.015,0.528-1.887,2.517c2.368-0.777,4.16-2.131,4.403-5.033C146.382,203.299,146.097,205.7,145.518,206.341z
		 M153.066,207.599c2.313,0.217,1.902-2.291,2.517-3.774c-0.629,0-1.258,0-1.887,0C153.71,205.307,152.612,205.677,153.066,207.599z
		 M146.776,209.487c1.657,0.189,2.064-0.871,1.887-2.517C146.969,207.013,145.64,208.409,146.776,209.487z M117.839,215.148
		c1.591-2.094,3.263-4.047,1.259-6.92C118.732,210.197,116.169,213.232,117.839,215.148z M138.599,210.745
		c-1.426-1.436-2.286,0.907-2.517,2.517c2.221-0.925,4.42-1.871,4.403-5.033C138.828,208.039,138.421,209.099,138.599,210.745z
		 M141.114,212.632c0.63,0,1.259,0,1.888,0c0.057-1.717-1.048-1.267,0-2.517C140.4,209.952,140.471,210.863,141.114,212.632z
		 M146.147,212.632c1.969,0.292,2.808-0.547,2.516-2.517C147.062,210.193,146.224,211.032,146.147,212.632z M111.549,223.956
		c0.13-1.729,2.282-3.685,3.145-5.662c0.771-1.765,2.604-5.044,0.63-5.661C113.817,215.75,110.834,220.712,111.549,223.956z
		 M135.453,217.665c2.34,0.662,1.233-2.121,2.516-2.517c1.97,0.292,2.809-0.547,2.517-2.516
		C138.355,213.857,135.541,214.397,135.453,217.665z M140.485,217.665c2.723,0.957,3.395-2.874,1.259-3.146
		C141.476,215.719,139.946,215.658,140.485,217.665z M104.629,222.068c0.851-1.072,2.264-4.817,0.629-6.291
		C104.702,217.145,103.845,221.445,104.629,222.068z M137.969,219.551c1.563,0.442,2.665-2.689,1.259-3.145
		C138.518,217.164,137.432,217.546,137.969,219.551z M113.436,227.1c0.413-2.753,5.432-8.905,3.146-10.064
		C115.452,219.903,111.804,223.565,113.436,227.1z M104,231.504c2.471-0.519,3.023-6.569,1.258-7.549
		C105.781,227.415,103.683,228.251,104,231.504z M107.774,234.02c2.017,0.224,1.292-2.726,1.887-4.403
		c0.376-1.06,3.478-3.887,0.629-3.774C109.401,228.518,107.689,230.371,107.774,234.02z M105.258,237.794
		c0.552-1.775,2.863-6.271,0.629-6.92C106.504,233.621,103.597,236.092,105.258,237.794z M103.37,252.892
		c2.423,0.184,3.348-2.964,0.63-3.146C103.472,250.477,103.17,251.433,103.37,252.892z M91.418,264.844
		c0.458-1.06,3.334-2.89,1.258-4.403C92.535,261.818,89.839,263.828,91.418,264.844z M114.064,263.586
		c-1.483-0.194-1.17-2.185-3.146-1.887C110.553,263.384,113.507,264.903,114.064,263.586z M32.286,182.437
		c-1.384-3.649-2.293-7.772-3.774-11.323C28.581,175.888,29.978,183.056,32.286,182.437z"/>
	<path style="fill-rule:evenodd;clip-rule:evenodd;fill:#608A46;" d="M65.626,206.97c-2.481-4.229-4.889-8.531-5.662-14.469
		C61.629,194.865,63.79,202.628,65.626,206.97z"/>
	<path style="fill-rule:evenodd;clip-rule:evenodd;fill:#608A46;" d="M85.127,222.697c-2.298,0.13-3.804-4.895-5.662-7.549
		c-1.967-2.81-4.851-5.144-5.662-8.178C78.547,211.245,80.822,217.986,85.127,222.697z"/>
	<path style="fill-rule:evenodd;clip-rule:evenodd;fill:#608A46;" d="M76.95,70.463c-1.837-4.284-6.045-9.967-10.065-13.84
		c-4.488-4.323-8.858-6.461-18.872-5.662c0.695-1.611,3.378-1.235,5.662-1.258c-2.792-1.323-5.769-1.093-8.178,0
		c-2.983,1.353-3.86,5.062-6.291,6.291c-0.631-0.867-0.206-2.63,0.629-3.774c0.827-1.133,5.828-4.605,8.178-5.033
		c6.493-1.181,11.906,3.04,15.727,5.662c2.687-2.486,12.095-2.594,11.952,3.146c-1.482,0.014-1.852-1.083-3.774-0.629
		c-0.177-1.016,0.595-1.083,0.629-1.887c-3.275-0.046-4.664-1.009-7.549,0c6.272,7.357,13.594,13.665,18.243,22.646
		c-1.203,0.293-2.708-1.939-2.516,0.629c-8.59-4.411-13.465-12.536-21.388-17.614c-0.737,0.102-0.531,1.147-0.629,1.887
		c-2.175-0.464-0.924-2.398,0.629-2.517c6.393,3.252,10.413,8.879,15.727,13.21c-0.454-5.003-8.437-7.915-10.694-13.21
		C69.161,61.896,72.738,66.496,76.95,70.463z"/>
	<path style="fill-rule:evenodd;clip-rule:evenodd;fill:#608A46;" d="M49.271,64.801c-1.859,0.909,1.959,1.323,2.517,1.887
		c-1.545,0.505-7.097-0.933-8.807-0.629c-1.933-1.874,1.86-0.807,2.516-1.887c-1.15-2.503-4.113-0.727-6.291-1.258
		c-1.36-0.332-2.528-1.823-3.774-1.887c-9.96-0.512-18.687,7.729-22.017,15.098c1.766,3.782,5.461-2.832,8.178,0
		c7.234-7.646,20.904-5.125,29.566-0.629c-1.188,4.457-6.101-0.092-8.807,0c-1.737-0.402-2.357,0.933-3.774,1.258
		c-3.279,0.752-7.643-0.032-10.065,0.629c-8.587,2.343-12.147,9.915-18.872,14.469c1.515-2.259,3.222-4.327,5.032-6.291
		c-2.677-0.149-5.273,5.202-6.919,8.178c2.384,9.777,5.738,18.585,8.807,27.679c-2.554-2.68-4.31-7.157-5.662-11.323
		C9.4,105.478,9.262,99.892,7.123,95.625c-2.101,2.553-0.213,6.867,0.629,10.065c1.399,5.31,4.122,10.6,5.662,15.098
		c0.24,0.702-0.343,1.866,0,2.516c1.579,2.999,4.633,4.257,5.662,6.92c-2.021,0.585-4.451-3.523-4.404,0.629
		c-5.349-3.039-7.16-9.615-11.323-13.839c-0.84,6.507,5.797,10.975,9.436,15.098c-4.333,0.341-6.233-7.181-9.436-10.065
		c-1.566,6.395,5.928,9.165,7.549,14.468c-3.704-2.586-5.885-6.696-8.178-10.694c-2.593,3.44,5.665,7.745,6.291,12.581
		c-3.297-2.154-4.79-6.114-6.919-9.436c-2.521,4.632,3.784,5.851,3.774,10.065c-9.782-2.966-4.365-14.23-4.404-25.792
		c-0.02-6.13,0.121-14.719,3.146-18.872c1.851-9.472,8.455-14.191,9.436-24.534c7.446-5.336,13.17-13.612,25.792-8.807
		c1.125,0.177,1.291-0.595,0.629-0.629c1.113-1.676,2.661,1.483,3.774,1.887c8.292,2.193,16.752,4.217,20.759,10.694
		C59.788,70.221,56.626,65.414,49.271,64.801z M12.785,85.561c2.059-1.937,6.21-5.097,5.662-7.549
		C15.894,79.455,12.063,82.936,12.785,85.561z M20.963,76.125c-1.989,0.736-4.303,1.149-5.662,2.516
		C17.885,78.499,19.421,77.308,20.963,76.125z M5.865,100.029c-3.125,0.304-1.525,4.745-1.258,6.92
		c-3.159-1.738,0.288,6.409-1.258,6.919c0.188-1.022-0.849-1.697-1.258-0.629c0.733,0.106,0.683,0.995,0.629,1.887
		c2.228-1.102,1.547,0.419,3.774,0.629c1.85-1.061-1.963-2.827,0-3.774c1.038,3.576,2.58,6.647,5.033,8.807
		C9.703,113.805,6.799,107.902,5.865,100.029z M5.236,116.385c1.324,5.806,5.348,8.911,8.807,12.581
		C12.892,123.563,9.191,117.958,5.236,116.385z M27.253,74.237c2.563,0.692,7.013-0.521,8.807-2.517
		C32.255,71.69,29.613,72.822,27.253,74.237z M29.77,76.753c1.988,0.101,3.797,0.022,4.403-1.258
		c-0.49-0.139-0.731-0.527-0.629-1.258C31.738,74.528,30.078,74.965,29.77,76.753z M18.446,81.786
		c3.63-2.031,7.171-4.152,10.694-6.291C24.206,76.222,19.854,77.532,18.446,81.786z"/>
	<path style="fill-rule:evenodd;clip-rule:evenodd;fill:#608A46;" d="M75.062,61.027c4.286,3.892,7.178,9.178,10.065,14.468
		C81.4,71.045,78.011,66.256,75.062,61.027z"/>
	<path style="fill-rule:evenodd;clip-rule:evenodd;fill:#608A46;" d="M62.481,64.801c1.341-0.89,4.592,1.675,5.033,3.774
		C65.598,67.556,64.581,65.637,62.481,64.801z"/>
	<path style="fill-rule:evenodd;clip-rule:evenodd;fill:#608A46;" d="M63.11,67.946c2.878,0.687,3.607,3.522,5.662,5.033
		C67.524,73.155,63.991,70.229,63.11,67.946z"/>
	<path style="fill-rule:evenodd;clip-rule:evenodd;fill:#608A46;" d="M102.112,100.029c-1.732,4.892,0.38,8.344-1.887,13.839
		c-2.054-0.65-1.334-1.593-3.146,0c0.142,0.906,1.877,0.22,1.887,1.258c-0.478,4.135-2.067,7.159-4.403,9.436
		c4.029-9.563-4.367-13.995-7.549-20.13c0.343,4.696,5.818,9.695,7.549,15.098c-0.96,3.023-1.407,6.561-1.887,10.065
		c-2.048-0.095-1.622,0.99-2.516,3.145c-2.044-2.204,1.633-6.876-1.258-10.694c-2.031,4.106-1.24,10.812,0,15.098
		c1.706,0.811,3.493,1.539,6.291,1.258c-2.586,4.438-9.958-0.888-8.178-6.919c-2.483,2.191,0.246,3.684,0,6.919
		c-0.774-0.274-1.292-0.805-1.258-1.887c-1.902,0.952,0.521,2.761,0,4.404c-2.477-1.499-1.16,0.102-1.258,2.516
		c-1.243-0.435-1.677-1.678-1.887-3.145c-1.039,1.374-0.234,3.438,1.258,5.032c-1.582,2.144-1.98-2.165-3.146-2.517
		c-2.13,1.97,1.27,3.728,1.258,5.662c-0.629,0-1.258,0-1.887,0c-1.213,6.455,1.961,8.522,5.032,10.694
		c-1.688,3.023-3.752-2.421-5.662-3.146c-0.721,3.773-2.546,10.912,0,15.098c-2.236,0.978-0.379-2.137-1.887-1.888
		c-0.37,3.985,0.924,9.638,0,15.098c-0.629,0-1.258,0-1.887,0c1.376,8.061,4.216,14.656,5.662,22.646
		c1.135-6.215-3.784-15.026-3.145-20.759c3.254,7.648,4.155,17.652,6.291,26.421c0.184-7.431-2.657-16.719-2.516-25.163
		c0.072-4.314-1.132-9.711,2.516-12.581c-3.083,14.204-1.04,32.459,6.291,40.26c-1.081-5.629-3.641-9.779-4.403-15.727
		c2.573,1.83,2.495,6.312,3.774,9.437c1.36-2.226-0.507-6.604-1.887-8.179c0.797-4.864,2.901-8.422,4.403-12.581
		c1.854,0.542-1.766,8.128-3.145,10.065c2.453,8.661,4.495,17.732,8.178,25.162c-1.716,0.459-1.267-1.25-2.517-1.258
		c0.804,2.342,2.011,4.28,2.517,6.92c-2.38,0.074-0.935-3.678-3.146-3.774c-1.457,3.92,4.506,5.443,3.774,10.694
		c-3.436-3.694-4.428-9.831-8.807-12.582c-0.619-5.378-6.559-8.343-8.178-13.21c-0.136-0.41,0.881-0.729,0.629-1.258
		c-0.328-0.69-1.6-1.094-1.887-1.888c-2.832-7.819-3.214-15.684-6.291-24.533c1.263-0.214,1.968,0.128,1.887,1.258
		c-1.032-12.676,3.878-26.496,1.258-40.261c-2.498-0.646-5.689-0.601-6.92-2.516c0.924-2.119,5.816,0.823,8.178,1.258
		c2.452-2.79,4.165-6.319,6.919-8.807c0.83-8.821,1.458-16.856,0.629-25.792c-0.797-8.595-4.606-16.874-3.774-23.904
		c0.306-2.587,1.877-4.681,2.516-6.92C92.359,82.523,94.97,93.541,102.112,100.029z M90.16,117.014
		c-0.898-0.245-1.061-0.755-1.887,0c1.114,4.605,2.778,6.871,3.145,10.694c2.372-3.232-2.133-7.754-0.629-10.065
		c0.355,1.532,0.539,3.236,2.517,3.146c-0.382-4.449-3.138-9.851-5.662-10.065C88.808,112.495,89.592,114.646,90.16,117.014z
		 M92.676,224.584c0.107-0.941-0.225-2.322,0.629-2.517c-0.176,1.434,0.151,2.365,1.258,2.517c-0.374-2.373-0.756-5.112-3.146-3.774
		c-1.615-4.257-3.625-8.117-5.661-11.952C84.762,215.327,88.77,219.807,92.676,224.584z M84.499,85.561
		c1.153,3.887,5.019,8.39,4.403,11.952c-1.643-3.18-1.946-7.7-5.032-9.436c1.328,4.543,2.311,9.431,5.662,11.952
		C92.118,95.478,87.757,88.321,84.499,85.561z M98.338,111.981c0-1.468,0-2.936,0-4.403c-5.551-6.611-5.943-18.381-12.581-23.904
		C90.316,92.743,93.468,103.221,98.338,111.981z M86.386,100.029c1.837,5.921,5.466,10.051,9.436,13.839
		c-0.211-5.235-0.646-12.34-6.92-13.21c1.125,3.909,3.784,6.282,5.662,9.436C90.576,108,90.188,102.308,86.386,100.029z
		 M92.676,91.851c0.704,2.008,0,5.427,2.516,6.291c-1.456-5.463-3.168-10.671-6.291-14.468
		C89.603,86.687,91.801,89.353,92.676,91.851z M98.967,100.658c-0.842-2.932-1.644-5.904-3.774-7.549
		C94.681,97.396,97.026,98.824,98.967,100.658z M95.192,221.439c-0.986-4.465-2.33-8.574-4.403-11.952
		C92.064,213.663,92.64,218.54,95.192,221.439z"/>
	<path style="fill-rule:evenodd;clip-rule:evenodd;fill:#608A46;" d="M29.141,98.771c1.104,0.065,1.305-1.242,3.146-1.888
		c-0.262,6.984,1.069,16.092,3.145,22.646c-2.604,0.297-1.671-2.942-2.516-4.403c-1.861,2.933,1.527,6.005,1.258,9.436
		c0.491,1.455,3.465-3.161,5.033-0.629c2.19-1.375,3.193-3.937,6.92-3.774c-2.571,4.032-8.839,6.661-13.839,6.291
		c0.225-3.161-0.387-5.484-1.258-7.549c-2.849-0.721-4.908,2.599-6.92,0.629c1.679-2.084,4.985-2.656,6.92-1.258
		C29.269,111.871,29.749,105.086,29.141,98.771z M31.028,101.916c0,2.726,0,5.452,0,8.178
		C32.818,113.841,31.653,103.606,31.028,101.916z"/>
	<path style="fill-rule:evenodd;clip-rule:evenodd;fill:#608A46;" d="M105.887,89.964c-1.944,0.153-1.062,3.131-3.774,2.516
		c1.129-3.693,3.838-5.808,6.291-8.178c-0.37,1.937-0.161,4.452-2.517,4.403c0.448,1.994,3.675,4.808,0,5.662
		C105.887,92.899,105.887,91.432,105.887,89.964z"/>
	<path style="fill-rule:evenodd;clip-rule:evenodd;fill:#608A46;" d="M73.804,92.48c0.265,4.978,3.908,6.577,3.774,11.952
		c-2.539-3.122-2.556-8.767-5.662-11.323c0.863-3.75,5.351-3.875,8.807-5.032c1.693,2.015-1.523,2.218,0,4.403
		c-2.283,0.605-0.528-2.827-2.516-2.516c-1.864,2.521,2.993,3.696,1.887,7.549c-3.04-0.316-1.685-5.026-3.774-6.291
		c-1.142,5.007,5.725,10.39,2.516,14.468c0.035,2.062,1.789,2.405,1.258,5.033C75.692,106.562,79.833,95.91,73.804,92.48z"/>
	<path style="fill-rule:evenodd;clip-rule:evenodd;fill:#608A46;" d="M58.078,91.222c1.316,2.387-1.774,5.758-2.516,8.178
		C54.964,97.731,57.303,93.61,58.078,91.222z"/>
	<path style="fill-rule:evenodd;clip-rule:evenodd;fill:#608A46;" d="M9.64,93.109c1.916,1.02,3.934,1.938,4.403,4.404
		c-0.629,0-1.258,0-1.887,0c1.552,6.667,5.22,14.435,5.662,20.13c-3.683-5.124-4.827-12.787-6.92-19.501
		c0.51-0.12,0.627-0.631,1.258-0.629C11.479,95.883,9.881,95.174,9.64,93.109z"/>
	<path style="fill-rule:evenodd;clip-rule:evenodd;fill:#608A46;" d="M68.143,96.254c5.34,4.516,7.144,12.567,9.436,20.13
		c-0.826-0.222-0.989-1.107-1.887-1.258c0.01,1.668-0.349,3.704,1.258,3.774c1.421-0.352-0.763-0.981,0.629-1.887
		c0.931,0.327,1.585,0.931,2.517,1.258c-2.046,0.216-3.594,3.011-5.033,1.887c-0.319-9.357-6.944-15.661-8.178-22.018
		c4.491,3.896,5.324,11.451,8.807,16.356C75.641,108.463,70.588,101.99,68.143,96.254z"/>
	<path style="fill-rule:evenodd;clip-rule:evenodd;fill:#608A46;" d="M71.917,123.304c-2.419-8.064-5.986-14.982-9.436-22.017
		C67.625,106.237,71.023,116.192,71.917,123.304z"/>
	<path style="fill-rule:evenodd;clip-rule:evenodd;fill:#608A46;" d="M62.481,106.319c-1.106,0.152-1.434,1.083-1.258,2.517
		c-0.95-1.776-1.11-4.342-1.258-6.92c3.427,2.025,4.504,6.4,6.291,10.065C65.023,112.556,63.17,108.377,62.481,106.319z"/>
	<path style="fill-rule:evenodd;clip-rule:evenodd;fill:#608A46;" d="M21.592,93.738c2.907,1.44-1.093,4.608-0.629,7.549
		c1.778-0.528,3.883-0.73,5.661-1.258c-0.504,2.182,0.937,2.418,0.629,4.403c-1.342,0.294-1.198-0.898-1.258-1.887
		c-1.928,0.272-0.204,2.756-0.629,4.403c-0.162,0.625-1.666,0.224-1.887,0.629c-0.148,0.271,1.577,4.264-1.258,1.887
		c-0.376,1.12,1.844,2.612,0,3.146c-2.185-1.479-1.621-5.484-1.887-8.178C20.051,101.577,19.529,96.392,21.592,93.738z"/>
	<path style="fill-rule:evenodd;clip-rule:evenodd;fill:#608A46;" d="M61.223,123.304c2.305,0.421,1.688,3.765,3.145,5.033
		C63.147,129.312,61.788,125.073,61.223,123.304z"/>
	<path style="fill-rule:evenodd;clip-rule:evenodd;fill:#608A46;" d="M64.998,149.725c1.843-2.295-2.226-4.041-1.887-6.92
		c3.372,1.031,2.72,6.088,5.032,8.178c-0.102,0.737-1.147,0.531-1.887,0.63c0.087,2.22,1.8,2.812,1.887,5.032
		c-0.506,0.333-1.021,0.656-1.887,0.629c2.199,4.214-0.88,6.526,1.258,11.323c-1.016,0.178-1.083-0.595-1.887-0.629
		c0.241,3.68,3.777,6.927,2.516,10.065c-2.368-0.568-2.381-3.49-2.516-6.291c-1.435-3.179-2.693-6.533-3.774-10.065
		c1.716-0.458,1.266,1.25,2.516,1.259c-0.11-2.197-1.447-3.166-3.145-3.774c1.356-1.72,3.098,1.473,4.403,1.887
		c-1.292-6.048-8.413-6.266-10.694-11.323c1.876,0.235,4.676,4.959,7.549,6.291c1.457-0.471,2.929-2.506,3.146,0.629
		c1.698-7.155-7.751-8.601-8.807-15.098C59.251,144.567,61.233,148.038,64.998,149.725z"/>
	<path style="fill-rule:evenodd;clip-rule:evenodd;fill:#608A46;" d="M57.449,149.096c2.511-1.439,3.451,4.08,6.919,3.774
		C61.683,154.485,59.705,150.002,57.449,149.096z"/>
	<path style="fill-rule:evenodd;clip-rule:evenodd;fill:#608A46;" d="M14.672,152.242c-1.07,0.231-1.187-0.491-1.258-1.259
		c-1.902,1.74,1.499,3.498,1.258,5.662c1.846-0.535-0.818-1.583,0-3.146c3.425,0.35,1.666,5.884,4.404,6.92
		c-0.426,2.353-2.091-0.466-2.517,1.887c-2.78-2.462-2.785-7.699-5.662-10.064C11.036,150.944,15.364,148.733,14.672,152.242z"/>
	<path style="fill-rule:evenodd;clip-rule:evenodd;fill:#608A46;" d="M137.969,161.048c1.588,2.866-1.391,6.562-1.887,9.437
		c0.178,1.124-0.595,1.29-0.629,0.629C135.888,167.355,137.534,164.807,137.969,161.048z"/>
	<path style="fill-rule:evenodd;clip-rule:evenodd;fill:#608A46;" d="M57.449,164.194c1.331,2.443,3.401,4.147,3.774,7.549
		C59.523,169.668,58.269,167.148,57.449,164.194z"/>
	<path style="fill-rule:evenodd;clip-rule:evenodd;fill:#608A46;" d="M58.078,172.372c1.356-0.905,3.248,3.019,3.146,5.662
		C59.882,176.439,59.714,173.67,58.078,172.372z"/>
	<path style="fill-rule:evenodd;clip-rule:evenodd;fill:#608A46;" d="M74.434,198.792c1.094-4.667-3.292-9.282-3.146-15.098
		c4.372,7.386,5.115,16.661,8.178,24.533c2.234,5.741,6.935,9.47,8.178,15.098c-8.948-11.812-15.79-25.729-20.13-42.147
		C72.005,184.865,71.896,193.152,74.434,198.792z"/>
	<path style="fill-rule:evenodd;clip-rule:evenodd;fill:#608A46;" d="M87.015,225.842c1.677,1.223,5.278,6.646,4.403,6.291
		C89.92,230.066,87.908,228.513,87.015,225.842z"/>
	<path style="fill-rule:evenodd;clip-rule:evenodd;fill:#608A46;" d="M127.275,45.3c-2.104,0.481-3.684,0.335-7.549,1.258
		c-0.635,1.892,1.401,1.115,2.516,1.258c-0.793,1.513-3.345,1.268-4.403,2.516c-2.085-0.614,0.703-1.244,0.629-1.887
		c-1.028-0.577-5.795,0.472-5.032,3.774c-3.106-1.701-3.899,4.486-7.549,2.516c0.258,2.15,1.699,0.799,0.629,3.146
		c0.85,1.458,4.731-0.118,5.033,1.887c1.686-0.64,5.847-4.741,7.549-1.258c-3.355-0.629-4.379,1.074-6.291,1.887
		c0.408,0.64,1.446,0.651,1.258,1.887c-3.566-0.852-6.125-3.85-10.694-1.887c-1.745-0.941,1.093-2.573-0.629-3.145
		c0.353-1.308,0.981-1.333,1.888-0.629c1.621-0.151-0.864-1.082,0-2.516C109.414,48.949,120.407,34.77,127.275,45.3z"/>
	<path style="fill-rule:evenodd;clip-rule:evenodd;fill:#608A46;" d="M34.173,98.142c2.841,0.706,3.156,3.69,2.517,6.291
		c0.641,1.236,5.043-0.815,5.032,2.517c-1.283,1.264-1.233-0.278-2.516-0.629c-0.336,2.434,1.123,3.071,0.629,5.662
		c-2.628-1.811-0.047,2.744-1.258,3.146c-1.524-0.573-1.666-2.528-1.887-4.403c-1.904,1.541,0.477,4.094,0,6.291
		c-2.816-1.896-2.242-7.604-2.517-11.952C34.017,102.577,32.6,99.958,34.173,98.142z"/>
</g>
</svg>
